<svg width="56" height="56" viewBox="0 0 56 56" fill="none" xmlns="http://www.w3.org/2000/svg">
<circle cx="28" cy="28" r="27.5" stroke="#160C2D"/>
<mask id="path-2-inside-1_264_334" fill="white">
<path d="M13 27.4961L24.4336 17L25.5303 18.1455L16.1924 26.7119L43 26.7119L43 28.2803L16.1924 28.2803L25.5303 36.8545L24.4336 38L13 27.4961Z"/>
</mask>
<path d="M13 27.4961L24.4336 17L25.5303 18.1455L16.1924 26.7119L43 26.7119L43 28.2803L16.1924 28.2803L25.5303 36.8545L24.4336 38L13 27.4961Z" fill="black"/>
<path d="M13 27.4961L12.3237 26.7594L11.5216 27.4958L12.3235 28.2325L13 27.4961ZM24.4336 17L25.1559 16.3085L24.4787 15.6011L23.7573 16.2633L24.4336 17ZM25.5303 18.1455L26.2063 18.8824L26.959 18.1918L26.2526 17.454L25.5303 18.1455ZM16.1924 26.7119L15.5164 25.975L13.6231 27.7119L16.1924 27.7119L16.1924 26.7119ZM43 26.7119L44 26.7119L44 25.7119L43 25.7119L43 26.7119ZM43 28.2803L43 29.2803L44 29.2803L44 28.2803L43 28.2803ZM16.1924 28.2803L16.1924 27.2803L13.6248 27.2803L15.516 29.0169L16.1924 28.2803ZM25.5303 36.8545L26.2526 37.546L26.9587 36.8085L26.2066 36.1179L25.5303 36.8545ZM24.4336 38L23.7571 38.7364L24.4785 39.3992L25.1559 38.6915L24.4336 38ZM13 27.4961L13.6763 28.2328L25.1099 17.7367L24.4336 17L23.7573 16.2633L12.3237 26.7594L13 27.4961ZM24.4336 17L23.7113 17.6915L24.8079 18.837L25.5303 18.1455L26.2526 17.454L25.1559 16.3085L24.4336 17ZM25.5303 18.1455L24.8543 17.4086L15.5164 25.975L16.1924 26.7119L16.8684 27.4488L26.2063 18.8824L25.5303 18.1455ZM16.1924 26.7119L16.1924 27.7119L43 27.7119L43 26.7119L43 25.7119L16.1924 25.7119L16.1924 26.7119ZM43 26.7119L42 26.7119L42 28.2803L43 28.2803L44 28.2803L44 26.7119L43 26.7119ZM43 28.2803L43 27.2803L16.1924 27.2803L16.1924 28.2803L16.1924 29.2803L43 29.2803L43 28.2803ZM16.1924 28.2803L15.516 29.0169L24.8539 37.5911L25.5303 36.8545L26.2066 36.1179L16.8687 27.5437L16.1924 28.2803ZM25.5303 36.8545L24.8079 36.1629L23.7113 37.3085L24.4336 38L25.1559 38.6915L26.2526 37.546L25.5303 36.8545ZM24.4336 38L25.1101 37.2636L13.6765 26.7597L13 27.4961L12.3235 28.2325L23.7571 38.7364L24.4336 38Z" fill="#160C2D" mask="url(#path-2-inside-1_264_334)"/>
</svg>
