<svg width="154" height="148" viewBox="0 0 154 148" fill="none" xmlns="http://www.w3.org/2000/svg">
<path d="M116.145 99.009H128.164C141.813 99.009 152.876 87.9558 152.876 74.3176C152.876 60.6793 141.813 49.6261 128.164 49.6261C126.812 49.6261 125.482 49.7423 124.181 49.953C124.406 48.1735 124.53 46.3729 124.53 44.5426C124.53 20.4758 105.007 0.969604 80.9198 0.969604C59.3763 0.969604 41.4964 16.5761 37.9569 37.0913C36.096 36.7427 34.1848 36.5538 32.2221 36.5538C14.9602 36.5538 0.96875 50.5334 0.96875 67.7808C0.96875 85.0282 14.9602 99.0078 32.2221 99.0078H37.6989" stroke="white" stroke-width="1.93924" stroke-linecap="round" stroke-linejoin="round"/>
<path d="M51.7101 115.516V76.0366H38.6758L64.8547 45.1411L91.0336 76.0366H77.9993V115.516L64.9649 115.517L91.1438 146.413L117.323 115.517H104.288V76.0372" stroke="white" stroke-width="1.93924" stroke-linecap="round" stroke-linejoin="round"/>
</svg>
