<svg width="272" height="69" viewBox="0 0 272 69" fill="none" xmlns="http://www.w3.org/2000/svg">
<path d="M0 15.9206H8.46361V20.3921C11.3346 16.9059 15.417 15.0103 20.4013 15.0103C26.218 15.0103 30.6793 17.6664 32.9419 22.0628C35.8876 17.5111 40.573 15.0103 46.5445 15.0103C55.0829 15.0103 60.7502 20.7723 60.7502 29.4903V54.5894H52.2866V31.9964C52.2866 26.6896 48.9619 23.2035 43.7482 23.2035C38.5345 23.2035 34.6069 26.7699 34.6069 32.1517V54.5947H26.1433V32.0018C26.1433 26.695 22.8187 23.2088 17.605 23.2088C12.3912 23.2088 8.46361 26.7753 8.46361 32.1571V54.6001H0V15.9206Z" fill="#003A50"/>
<path d="M76.7696 54.2898L60.5254 15.9263H70.195L81.455 44.1313L92.6348 15.9263H102.08L79.6406 69.0001H70.4992L76.7696 54.2898Z" fill="#003A50"/>
<path d="M111.98 42.6853V23.6535H105.48V15.9208H109.408C111.372 15.9208 112.429 14.8605 112.429 12.8898V5.45703H120.439V15.9208H129.959V23.6535H120.439V41.3198C120.439 44.7309 122.552 46.7765 126.106 46.7765H129.959V54.5842H124.894C116.506 54.5842 111.975 50.3376 111.975 42.6799L111.98 42.6853Z" fill="#003A50"/>
<path d="M133.061 35.2577C133.061 23.7336 141.903 15.0156 153.611 15.0156C165.319 15.0156 174.237 23.7336 174.237 35.338C174.237 36.3983 174.162 37.5389 174.012 38.5243H142.127C143.413 44.1363 147.944 47.8527 153.99 47.8527C158.446 47.8527 162.299 45.8821 164.268 42.9261H173.639C170.544 50.4339 162.987 55.5105 153.841 55.5105C141.903 55.5105 133.061 46.7924 133.061 35.2684V35.2577ZM142.202 31.5413H165.17C163.884 26.2344 159.353 22.668 153.611 22.668C147.869 22.668 143.563 26.1541 142.202 31.5413Z" fill="#003A50"/>
<path d="M177.334 35.2577C177.334 23.7336 186.176 15.0156 197.959 15.0156C208.008 15.0156 215.943 21.3828 217.528 30.481H208.536C207.175 26.1595 203.018 23.2035 197.959 23.2035C191.161 23.2035 186.022 28.4354 186.022 35.2577C186.022 42.08 191.161 47.3119 197.959 47.3119C203.024 47.3119 207.175 44.3559 208.536 40.0344H217.528C215.943 49.1326 208.008 55.4997 197.959 55.4997C186.171 55.4997 177.334 46.7817 177.334 35.2577Z" fill="#003A50"/>
<path d="M221.768 0H230.231V21.0774C233.332 17.1361 237.788 15.0102 243.225 15.0102C252.367 15.0102 258.488 21.0774 258.488 30.2506V54.5893H250.024V33.0567C250.024 27.1447 246.246 23.198 240.429 23.198C234.308 23.198 230.231 27.2143 230.231 33.2066V54.5893H221.768V0Z" fill="#003A50"/>
<path d="M271.301 46.1064H262.848V54.5888H271.301V46.1064Z" fill="#FFF200"/>
</svg>
