<svg width="232" height="59" viewBox="0 0 232 59" fill="none" xmlns="http://www.w3.org/2000/svg">
<path d="M0 13.6143H7.23759V17.4381C9.69272 14.4569 13.1837 12.8358 17.446 12.8358C22.4201 12.8358 26.2351 15.1072 28.17 18.8668C30.689 14.9744 34.6957 12.8358 39.8022 12.8358C47.1037 12.8358 51.95 17.7632 51.95 25.2183V46.6816H44.7124V27.3615C44.7124 22.8233 41.8694 19.8422 37.411 19.8422C32.9525 19.8422 29.5938 22.892 29.5938 27.4943V46.6862H22.3562V27.366C22.3562 22.8279 19.5132 19.8468 15.0547 19.8468C10.5963 19.8468 7.23759 22.8966 7.23759 27.4988V46.6908H0V13.6143Z" fill="#DFE3E6"/>
<path d="M65.6489 46.4252L51.7578 13.6189H60.0267L69.6556 37.7382L79.2159 13.6189H87.2932L68.104 59.0046H60.2869L65.6489 46.4252Z" fill="#DFE3E6"/>
<path d="M95.7594 36.5018V20.2269H90.2012V13.6143H93.5599C95.2392 13.6143 96.1427 12.7076 96.1427 11.0224V4.66633H102.992V13.6143H111.134V20.2269H102.992V35.3341C102.992 38.2511 104.8 40.0004 107.839 40.0004H111.134V46.677H106.803C99.6292 46.677 95.7549 43.0456 95.7549 36.4972L95.7594 36.5018Z" fill="#DFE3E6"/>
<path d="M113.785 30.1503C113.785 20.2956 121.347 12.8404 131.359 12.8404C141.371 12.8404 148.997 20.2956 148.997 30.219C148.997 31.1257 148.933 32.1011 148.805 32.9437H121.538C122.638 37.7428 126.513 40.9208 131.683 40.9208C135.493 40.9208 138.788 39.2356 140.472 36.7079H148.485C145.839 43.1281 139.377 47.4693 131.555 47.4693C121.347 47.4693 113.785 40.0141 113.785 30.1594V30.1503ZM121.602 26.9722H141.243C140.144 22.4341 136.269 19.3843 131.359 19.3843C126.449 19.3843 122.766 22.3654 121.602 26.9722Z" fill="#DFE3E6"/>
<path d="M151.646 30.1503C151.646 20.2956 159.208 12.8404 169.284 12.8404C177.877 12.8404 184.663 18.2852 186.018 26.0655H178.329C177.165 22.37 173.61 19.8422 169.284 19.8422C163.47 19.8422 159.076 24.3162 159.076 30.1503C159.076 35.9843 163.47 40.4583 169.284 40.4583C173.615 40.4583 177.165 37.9305 178.329 34.235H186.018C184.663 42.0153 177.877 47.4601 169.284 47.4601C159.204 47.4601 151.646 40.005 151.646 30.1503Z" fill="#DFE3E6"/>
<path d="M189.643 0H196.88V18.0242C199.532 14.6538 203.342 12.8358 207.992 12.8358C215.809 12.8358 221.044 18.0242 221.044 25.8686V46.6816H213.806V28.2682C213.806 23.2126 210.575 19.8376 205.601 19.8376C200.367 19.8376 196.88 23.2721 196.88 28.3964V46.6816H189.643V0Z" fill="#DFE3E6"/>
<path d="M232 39.428H224.771V46.6816H232V39.428Z" fill="#FFF200"/>
</svg>
