<svg width="103" height="128" viewBox="0 0 103 128" fill="none" xmlns="http://www.w3.org/2000/svg">
<path d="M51.0767 32.7285C78.7376 32.7285 101.161 25.624 101.161 16.8602C101.161 8.09633 78.7376 0.991821 51.0767 0.991821C23.4158 0.991821 0.992188 8.09633 0.992188 16.8602C0.992188 25.624 23.4158 32.7285 51.0767 32.7285Z" stroke="white" stroke-width="1.98354" stroke-linecap="round" stroke-linejoin="round"/>
<path d="M101.161 47.6051C101.161 56.3687 78.7373 63.4735 51.0767 63.4735C23.4161 63.4735 0.992188 56.3687 0.992188 47.6051" stroke="white" stroke-width="1.98354" stroke-linecap="round" stroke-linejoin="round"/>
<path d="M101.161 80.3336C101.161 89.0972 78.7373 96.202 51.0767 96.202C23.4161 96.202 0.992188 89.0972 0.992188 80.3336" stroke="white" stroke-width="1.98354" stroke-linecap="round" stroke-linejoin="round"/>
<path d="M101.161 16.8601V111.292C101.161 119.937 78.7373 126.947 51.0767 126.947C23.4161 126.947 0.992188 119.937 0.992188 111.292V16.8601" stroke="white" stroke-width="1.98354" stroke-linecap="round" stroke-linejoin="round"/>
</svg>
